PathFileType	4	(X/Y/Z)	C:\Users\italobelli\Desktop\GitHub\PTbot_officialCBL\Personal_Results\ABD21_noisy1.trc
DataRate	CameraRate	NumFrames	NumMarkers	Units	OrigDataRate	OrigDataStartFrame	OrigNumFrames
106.533333	106.533333	17	9	m	106.533333	1	800
Frame#	Time		gu		centelbow		EpL		centpxt8		centijc7		ij		ts		aa		ai
			X1	Y1	Z1	X2	Y2	Z2	X3	Y3	Z3	X4	Y4	Z4	X5	Y5	Z5	X6	Y6	Z6	X7	Y7	Z7	X8	Y8	Z8	X9	Y9	Z9

1	0	-0.087866	-0.017899	0.16359	-0.10863	-0.26336	0.19077	-0.10846	-0.25575	0.2221	-0.046816	-0.15316	-0.008669	-0.046816	0.031938	-0.008669	0	0	0	-0.1336	0.021259	0.044771	-0.11947	0.016926	0.16312	-0.14539	-0.091614	0.047299
2	0.0093867	-0.087825	-0.017931	0.16363	-0.10885	-0.26339	0.19053	-0.10866	-0.25581	0.22187	-0.046816	-0.15316	-0.008669	-0.046816	0.031938	-0.008669	0	0	0	-0.13357	0.021274	0.044799	-0.11944	0.016902	0.16315	-0.14539	-0.091596	0.047301
3	0.018773	-0.087785	-0.017963	0.16367	-0.10907	-0.26342	0.1903	-0.10885	-0.25587	0.22165	-0.046816	-0.15316	-0.008669	-0.046816	0.031938	-0.008669	0	0	0	-0.13355	0.02129	0.044826	-0.1194	0.016878	0.16317	-0.14539	-0.091578	0.047301
4	0.02816	-0.087745	-0.017994	0.1637	-0.10929	-0.26344	0.19007	-0.10905	-0.25592	0.22143	-0.046816	-0.15316	-0.008669	-0.046816	0.031938	-0.008669	0	0	0	-0.13352	0.021306	0.044851	-0.11937	0.016855	0.16319	-0.1454	-0.09156	0.047299
5	0.037547	-0.087705	-0.018024	0.16374	-0.10951	-0.26347	0.18985	-0.10925	-0.25597	0.22121	-0.046816	-0.15316	-0.008669	-0.046816	0.031938	-0.008669	0	0	0	-0.13349	0.021321	0.044875	-0.11934	0.016832	0.16321	-0.1454	-0.091542	0.047296
6	0.046934	-0.087665	-0.018054	0.16377	-0.10973	-0.26348	0.18963	-0.10945	-0.25602	0.221	-0.046816	-0.15316	-0.008669	-0.046816	0.031938	-0.008669	0	0	0	-0.13347	0.021337	0.044897	-0.1193	0.016809	0.16323	-0.14541	-0.091524	0.04729
7	0.05632	-0.087626	-0.018084	0.16381	-0.10995	-0.2635	0.18942	-0.10966	-0.25606	0.2208	-0.046816	-0.15316	-0.008669	-0.046816	0.031938	-0.008669	0	0	0	-0.13344	0.021353	0.044918	-0.11927	0.016787	0.16325	-0.14541	-0.091506	0.047282
8	0.065707	-0.087586	-0.018112	0.16384	-0.11016	-0.26351	0.18921	-0.10986	-0.25609	0.2206	-0.046816	-0.15316	-0.008669	-0.046816	0.031938	-0.008669	0	0	0	-0.13342	0.021368	0.044937	-0.11924	0.016765	0.16327	-0.14542	-0.091488	0.047273
9	0.075094	-0.087548	-0.018141	0.16386	-0.11038	-0.26352	0.18901	-0.11006	-0.25613	0.2204	-0.046816	-0.15316	-0.008669	-0.046816	0.031938	-0.008669	0	0	0	-0.13339	0.021384	0.044955	-0.11921	0.016743	0.16328	-0.14542	-0.091469	0.047262
10	0.084481	-0.087509	-0.018169	0.16389	-0.1106	-0.26352	0.18881	-0.11027	-0.25615	0.22021	-0.046816	-0.15316	-0.008669	-0.046816	0.031938	-0.008669	0	0	0	-0.13337	0.0214	0.044971	-0.11918	0.016721	0.1633	-0.14543	-0.091451	0.047249
11	0.093867	-0.087472	-0.018196	0.16392	-0.11082	-0.26353	0.18862	-0.11047	-0.25618	0.22003	-0.046816	-0.15316	-0.008669	-0.046816	0.031938	-0.008669	0	0	0	-0.13334	0.021416	0.044986	-0.11914	0.0167	0.16331	-0.14544	-0.091432	0.047234
12	0.10325	-0.087434	-0.018223	0.16394	-0.11103	-0.26353	0.18843	-0.11068	-0.2562	0.21985	-0.046816	-0.15316	-0.008669	-0.046816	0.031938	-0.008669	0	0	0	-0.13332	0.021432	0.044999	-0.11911	0.016679	0.16332	-0.14544	-0.091413	0.047218
13	0.11264	-0.087398	-0.01825	0.16396	-0.11125	-0.26352	0.18825	-0.11089	-0.25621	0.21967	-0.046816	-0.15316	-0.008669	-0.046816	0.031938	-0.008669	0	0	0	-0.13329	0.021448	0.045012	-0.11908	0.016658	0.16333	-0.14545	-0.091395	0.0472
14	0.12203	-0.087362	-0.018276	0.16398	-0.11146	-0.26352	0.18808	-0.1111	-0.25623	0.2195	-0.046816	-0.15316	-0.008669	-0.046816	0.031938	-0.008669	0	0	0	-0.13327	0.021464	0.045023	-0.11905	0.016638	0.16334	-0.14546	-0.091376	0.047181
15	0.13141	-0.087326	-0.018301	0.164	-0.11168	-0.26351	0.18791	-0.11131	-0.25623	0.21933	-0.046816	-0.15316	-0.008669	-0.046816	0.031938	-0.008669	0	0	0	-0.13324	0.02148	0.045032	-0.11902	0.016617	0.16335	-0.14547	-0.091357	0.04716
16	0.1408	-0.087292	-0.018326	0.16402	-0.11189	-0.2635	0.18774	-0.11152	-0.25624	0.21917	-0.046816	-0.15316	-0.008669	-0.046816	0.031938	-0.008669	0	0	0	-0.13322	0.021496	0.04504	-0.11899	0.016597	0.16336	-0.14548	-0.091338	0.047137
17	0.15019	-0.087258	-0.018351	0.16404	-0.1121	-0.26349	0.18758	-0.11173	-0.25624	0.21901	-0.046816	-0.15316	-0.008669	-0.046816	0.031938	-0.008669	0	0	0	-0.13319	0.021512	0.045047	-0.11896	0.016577	0.16336	-0.14549	-0.091319	0.047113
